<svg width="473" height="320" viewBox="0 0 473 320" fill="none" xmlns="http://www.w3.org/2000/svg">
<path d="M339.588 69.1335C304.984 45.3666 258.142 69.1335 212.633 119.148C167.124 169.163 145.485 148.114 106.799 170.158C68.1122 192.202 57.7649 282.501 194.065 273.722C330.365 264.943 430.048 131.18 339.588 69.1335Z" fill="#F0F0F0"/>
<path d="M381.61 308.102C381.61 308.206 315.992 308.296 235.076 308.296C154.16 308.296 88.5138 308.206 88.5138 308.102C88.5138 307.998 154.122 307.909 235.076 307.909C316.03 307.909 381.61 308.006 381.61 308.102Z" fill="#263238"/>
<path d="M351.088 15.8808L346.221 17.2474L344.133 12.2489C340.297 3.03184 328.069 -1.86266 316.833 1.24932C305.598 4.3613 299.616 14.4697 303.453 23.6868L305.541 28.6853L300.656 30.0593C298.793 30.6272 297.28 31.7375 296.432 33.1595C295.584 34.5814 295.465 36.2056 296.101 37.6944L309.642 70.2179C309.923 70.9549 310.39 71.64 311.015 72.2325C311.639 72.8249 312.409 73.3127 313.278 73.6667C314.147 74.0207 315.098 74.2339 316.074 74.2934C317.05 74.3529 318.031 74.2576 318.96 74.0132L369.392 59.8348C371.279 59.2678 372.813 58.1477 373.672 56.7099C374.53 55.2721 374.645 53.6287 373.994 52.1254L360.443 19.6018C360.155 18.8669 359.681 18.1851 359.05 17.5972C358.419 17.0094 357.644 16.5274 356.771 16.1801C355.898 15.8328 354.944 15.6274 353.968 15.5759C352.992 15.5245 352.012 15.6282 351.088 15.8808V15.8808ZM312.647 21.0798C311.613 18.6833 311.798 16.065 313.165 13.7736C314.532 11.4823 316.974 9.69558 319.98 8.78789C321.464 8.38878 323.035 8.22873 324.6 8.3173C326.165 8.40587 327.69 8.74123 329.086 9.30339C330.482 9.86555 331.72 10.643 332.726 11.5893C333.731 12.5356 334.484 13.6314 334.939 14.8113L337.018 19.8098L314.726 26.0783L312.647 21.0798ZM340.996 49.9418L344.454 58.2454C344.518 58.4118 344.497 58.5912 344.397 58.7461C344.297 58.901 344.124 59.0196 343.916 59.0772L339.068 60.4364C338.875 60.4784 338.669 60.4601 338.493 60.3854C338.317 60.3106 338.184 60.1851 338.123 60.0353L334.636 51.7689C332.714 51.6865 330.869 51.1445 329.349 50.2154C327.829 49.2862 326.706 48.0143 326.132 46.5699C325.31 44.6603 325.46 42.5749 326.55 40.7502C327.64 38.9255 329.586 37.5032 331.981 36.7809C333.163 36.4634 334.415 36.3362 335.661 36.407C336.907 36.4777 338.122 36.7449 339.234 37.1926C340.346 37.6403 341.332 38.2594 342.133 39.013C342.934 39.7666 343.534 40.6392 343.897 41.5788C344.505 43.0461 344.555 44.6209 344.041 46.1103C343.528 47.5996 342.473 48.9389 341.005 49.9641L340.996 49.9418Z" fill="#646FD4"/>
<path d="M346.004 17.1583C346.004 17.2623 336.98 19.9286 325.754 23.1C314.528 26.2714 305.371 28.8189 305.324 28.7447C305.277 28.6704 314.348 25.9817 325.584 22.8029C336.819 19.6241 345.957 17.0617 346.004 17.1583Z" fill="#263238"/>
<path d="M356.72 18.5249C356.762 18.5894 356.796 18.6564 356.824 18.7254C356.899 18.874 356.984 19.0671 357.098 19.3048C357.344 19.8469 357.684 20.5971 358.109 21.5329L361.738 29.8365C363.249 33.3569 365.054 37.531 367.058 42.1656C368.003 44.4903 369.118 46.9115 370.157 49.459C370.713 50.7718 370.954 52.1546 370.866 53.5365C370.786 54.2553 370.526 54.9544 370.1 55.5939C369.646 56.2311 369.04 56.7935 368.314 57.2501C366.855 58.0877 365.234 58.7371 363.514 59.1737L358.648 60.5478L349.434 63.1399L333.833 67.507L323.297 70.4185L320.462 71.1612L319.706 71.3543C319.625 71.3825 319.539 71.4001 319.451 71.4063C319.451 71.4063 319.527 71.4063 319.687 71.3172L320.424 71.0869L323.259 70.2476L333.739 67.2174L349.311 62.7611L358.506 60.1467L363.372 58.7653C365.043 58.3463 366.617 57.7167 368.031 56.901C368.706 56.4774 369.271 55.9554 369.694 55.3636C370.094 54.7722 370.335 54.1225 370.403 53.4548C370.49 52.1233 370.259 50.7907 369.722 49.5259C368.702 47.0006 367.625 44.5571 366.651 42.2324C364.686 37.5904 362.872 33.4015 361.435 29.881C359.999 26.3606 358.789 23.5308 357.958 21.5403C357.561 20.5674 357.258 19.8098 357.013 19.2602L356.786 18.666C356.758 18.621 356.735 18.5737 356.72 18.5249V18.5249Z" fill="#263238"/>
<path d="M330.11 8.28288C330.11 8.28288 329.609 8.08978 328.683 7.79269C327.363 7.39405 325.967 7.1731 324.554 7.1391C322.459 7.08264 320.374 7.39211 318.449 8.04521C316.109 8.85846 314.108 10.1739 312.676 11.8405C311.234 13.5023 310.46 15.4662 310.455 17.4777C310.475 19.1263 310.793 20.7644 311.4 22.3425C311.891 23.6942 312.402 24.7712 312.742 25.5213C312.942 25.9023 313.107 26.2946 313.233 26.6948C312.965 26.3386 312.74 25.963 312.562 25.5733C312.175 24.8306 311.617 23.7759 311.069 22.4168C310.396 20.8221 310.03 19.1574 309.983 17.4777C309.957 15.3902 310.749 13.3471 312.25 11.6251C313.733 9.89763 315.816 8.54153 318.251 7.71842C320.235 7.06173 322.385 6.77206 324.535 6.87172C325.979 6.92956 327.397 7.19383 328.721 7.65157C329.075 7.77988 329.416 7.92884 329.741 8.0972C329.876 8.14362 330 8.20627 330.11 8.28288V8.28288Z" fill="#263238"/>
<path d="M330.545 37.3453C330.695 37.2734 330.854 37.2114 331.017 37.1596C331.49 36.9918 331.98 36.8552 332.482 36.7511C333.278 36.5663 334.1 36.4566 334.929 36.4243C336.057 36.3767 337.186 36.5106 338.246 36.818C340.665 37.4864 342.886 39.4249 343.982 42.017C344.508 43.408 344.508 44.8891 343.982 46.2802C343.399 47.7899 342.354 49.1644 340.939 50.2834L340.996 50.0829C342.253 52.7938 343.623 55.7349 345.04 58.8024L345.125 58.988L344.889 59.0549L342.725 59.6193L338 60.8597L337.764 60.9191L337.688 60.7334C336.394 57.6586 334.976 54.7917 333.909 51.9768L334.117 52.103C332.269 51.9824 330.508 51.4375 329.052 50.5359C327.734 49.7384 326.654 48.7245 325.886 47.5651C325.193 46.5369 324.848 45.386 324.884 44.2228C324.928 43.0341 325.306 41.8676 325.99 40.807C326.675 39.7464 327.649 38.8179 328.844 38.088C329.335 37.7743 329.887 37.5236 330.479 37.3453C329.945 37.5942 329.427 37.8644 328.929 38.1548C327.617 39.0274 326.611 40.1501 326.009 41.4154C325.492 42.3695 325.25 43.4017 325.301 44.438C325.351 45.4743 325.693 46.4889 326.302 47.4091C327.057 48.5245 328.111 49.4976 329.392 50.2611C330.781 51.118 332.46 51.6346 334.221 51.7465H334.381L334.428 51.858C335.468 54.6209 336.895 57.51 338.208 60.5997L337.896 60.4809L342.621 59.2406L344.776 58.6687L344.624 58.9212C343.216 55.8538 341.856 52.9052 340.608 50.1943V50.0829L340.722 49.9937C342.096 48.9212 343.12 47.604 343.708 46.1539C344.209 44.8233 344.209 43.407 343.708 42.0764C342.678 39.5809 340.552 37.6869 338.246 37.0185C337.225 36.7092 336.136 36.5652 335.043 36.5951C334.226 36.6098 333.415 36.697 332.624 36.8551C331.216 37.1299 330.554 37.3824 330.545 37.3453Z" fill="#263238"/>
<path d="M301.336 251.797L206.945 251.456C201.494 251.432 196.277 249.709 192.441 246.665C188.606 243.621 186.464 239.504 186.486 235.22L187.488 49.2362C187.499 47.1136 188.042 45.0135 189.087 43.056C190.131 41.0984 191.656 39.3219 193.575 37.8279C195.493 36.3338 197.767 35.1516 200.267 34.3488C202.767 33.5459 205.444 33.1383 208.145 33.149L302.527 33.4907C307.978 33.5123 313.195 35.2335 317.033 38.2763C320.87 41.319 323.014 45.4346 322.994 49.719L321.993 235.695C321.981 237.818 321.438 239.919 320.394 241.878C319.35 243.836 317.825 245.614 315.907 247.109C313.989 248.604 311.715 249.788 309.215 250.592C306.715 251.396 304.037 251.806 301.336 251.797V251.797Z" fill="#455A64"/>
<path d="M302.385 39.8854H284.091C283.494 39.8941 282.905 39.9952 282.358 40.1828C281.81 40.3704 281.315 40.6409 280.901 40.9788C280.487 41.3168 280.162 41.7156 279.944 42.1524C279.726 42.5892 279.619 43.0556 279.63 43.5247V46.1317C279.642 46.6005 279.535 47.0664 279.317 47.5028C279.099 47.9392 278.773 48.3375 278.359 48.6749C277.945 49.0122 277.45 49.282 276.903 49.4689C276.355 49.6557 275.767 49.7558 275.17 49.7635L239.508 49.6373C238.301 49.612 237.157 49.2114 236.326 48.5235C235.495 47.8355 235.045 46.9165 235.076 45.9683V43.3613C235.106 42.4143 234.658 41.4964 233.829 40.8087C233 40.121 231.858 39.7195 230.653 39.6923H224.218L208.201 39.6329C204.392 39.6151 200.728 40.7845 198.013 42.8851C195.298 44.9856 193.753 47.8462 193.715 50.8405L192.77 232.375C192.762 233.861 193.125 235.333 193.84 236.708C194.556 238.083 195.608 239.334 196.939 240.389C198.269 241.444 199.851 242.283 201.593 242.858C203.336 243.433 205.206 243.732 207.096 243.739L301.289 244.08C303.18 244.087 305.054 243.801 306.805 243.239C308.555 242.676 310.148 241.848 311.491 240.802C312.835 239.756 313.903 238.512 314.634 237.141C315.366 235.77 315.747 234.3 315.756 232.813L316.701 51.2787C316.724 48.276 315.228 45.3891 312.544 43.2527C309.859 41.1162 306.205 39.905 302.385 39.8854V39.8854Z" fill="white"/>
<path d="M289.713 219.86L219.673 219.623C218.946 219.623 218.36 218.999 218.369 218.241L218.445 203.84C218.445 203.097 219.04 202.459 219.768 202.459L289.808 202.711C290.211 202.766 290.571 202.941 290.814 203.2C291.057 203.459 291.164 203.781 291.112 204.1L291.045 218.486C291.045 219.251 290.441 219.868 289.713 219.86Z" fill="#646FD4"/>
<path d="M242.636 210.302C242.601 210.009 242.461 209.782 242.214 209.621C241.968 209.459 241.665 209.378 241.307 209.378C241.046 209.378 240.817 209.42 240.62 209.505C240.426 209.59 240.274 209.706 240.164 209.854C240.056 210.003 240.002 210.171 240.002 210.36C240.002 210.518 240.04 210.653 240.115 210.767C240.192 210.879 240.29 210.972 240.409 211.047C240.529 211.12 240.654 211.181 240.785 211.229C240.916 211.275 241.036 211.313 241.146 211.342L241.746 211.503C241.9 211.544 242.072 211.6 242.26 211.671C242.451 211.742 242.633 211.839 242.806 211.962C242.981 212.084 243.126 212.24 243.239 212.43C243.353 212.621 243.41 212.855 243.41 213.132C243.41 213.451 243.326 213.74 243.158 213.998C242.993 214.256 242.75 214.461 242.431 214.613C242.113 214.765 241.727 214.841 241.273 214.841C240.849 214.841 240.483 214.773 240.173 214.636C239.865 214.5 239.622 214.309 239.445 214.065C239.27 213.82 239.171 213.536 239.148 213.213H239.887C239.906 213.436 239.981 213.621 240.112 213.767C240.245 213.911 240.412 214.019 240.614 214.09C240.818 214.16 241.038 214.194 241.273 214.194C241.546 214.194 241.792 214.15 242.009 214.062C242.227 213.971 242.399 213.846 242.526 213.686C242.653 213.525 242.717 213.336 242.717 213.12C242.717 212.924 242.662 212.764 242.552 212.641C242.442 212.518 242.298 212.418 242.119 212.341C241.94 212.264 241.746 212.196 241.538 212.139L240.811 211.931C240.349 211.798 239.983 211.608 239.714 211.362C239.444 211.115 239.309 210.793 239.309 210.394C239.309 210.063 239.399 209.775 239.578 209.528C239.759 209.28 240.001 209.087 240.305 208.951C240.612 208.812 240.953 208.743 241.331 208.743C241.712 208.743 242.05 208.811 242.347 208.948C242.643 209.083 242.878 209.267 243.051 209.502C243.227 209.737 243.319 210.004 243.329 210.302H242.636ZM245.303 208.824V214.737H244.587V208.824H245.303ZM251.428 208.824V214.737H250.735L247.513 210.094H247.455V214.737H246.739V208.824H247.432L250.666 213.478H250.724V208.824H251.428ZM256.904 210.672C256.84 210.477 256.756 210.303 256.652 210.149C256.55 209.993 256.428 209.86 256.286 209.751C256.145 209.641 255.985 209.557 255.806 209.499C255.627 209.442 255.431 209.413 255.217 209.413C254.867 209.413 254.548 209.503 254.262 209.684C253.975 209.865 253.747 210.132 253.577 210.484C253.408 210.836 253.323 211.268 253.323 211.78C253.323 212.293 253.409 212.725 253.58 213.077C253.751 213.429 253.983 213.696 254.276 213.877C254.569 214.058 254.898 214.148 255.264 214.148C255.602 214.148 255.901 214.076 256.159 213.932C256.419 213.785 256.621 213.579 256.765 213.314C256.911 213.046 256.985 212.731 256.985 212.37L257.204 212.416H255.425V211.78H257.678V212.416C257.678 212.903 257.574 213.326 257.366 213.686C257.16 214.046 256.875 214.325 256.511 214.524C256.149 214.72 255.733 214.818 255.264 214.818C254.74 214.818 254.28 214.695 253.883 214.449C253.489 214.202 253.181 213.852 252.959 213.397C252.74 212.943 252.63 212.404 252.63 211.78C252.63 211.313 252.693 210.892 252.818 210.519C252.945 210.143 253.124 209.824 253.355 209.56C253.586 209.296 253.859 209.094 254.175 208.954C254.491 208.813 254.838 208.743 255.217 208.743C255.529 208.743 255.82 208.79 256.089 208.884C256.361 208.977 256.602 209.109 256.814 209.28C257.028 209.449 257.206 209.652 257.348 209.889C257.491 210.124 257.589 210.385 257.643 210.672H256.904ZM243.282 218.824H243.999V222.739C243.999 223.143 243.903 223.504 243.713 223.822C243.524 224.138 243.257 224.387 242.913 224.57C242.568 224.751 242.164 224.841 241.7 224.841C241.236 224.841 240.832 224.751 240.487 224.57C240.143 224.387 239.875 224.138 239.685 223.822C239.496 223.504 239.402 223.143 239.402 222.739V218.824H240.118V222.681C240.118 222.97 240.181 223.227 240.308 223.452C240.435 223.676 240.616 223.852 240.851 223.981C241.088 224.108 241.371 224.171 241.7 224.171C242.029 224.171 242.312 224.108 242.549 223.981C242.786 223.852 242.967 223.676 243.092 223.452C243.219 223.227 243.282 222.97 243.282 222.681V218.824ZM245.429 224.737V218.824H247.427C247.891 218.824 248.27 218.907 248.565 219.075C248.861 219.24 249.08 219.465 249.223 219.748C249.365 220.031 249.437 220.346 249.437 220.695C249.437 221.043 249.365 221.36 249.223 221.645C249.082 221.93 248.865 222.157 248.57 222.326C248.276 222.494 247.898 222.577 247.438 222.577H246.006V221.942H247.415C247.733 221.942 247.988 221.887 248.18 221.778C248.373 221.668 248.513 221.52 248.599 221.333C248.688 221.144 248.732 220.932 248.732 220.695C248.732 220.458 248.688 220.246 248.599 220.06C248.513 219.873 248.372 219.726 248.178 219.621C247.983 219.513 247.725 219.459 247.404 219.459H246.145V224.737H245.429Z" fill="#E8E8E3"/>
<path d="M233.643 93.2498L209.339 93.1631L209.319 96.6687L233.623 96.7554L233.643 93.2498Z" fill="#646FD4"/>
<path opacity="0.1" d="M233.643 93.2498L209.339 93.1631L209.319 96.6687L233.623 96.7554L233.643 93.2498Z" fill="black"/>
<path d="M304.889 114.774C305.08 114.758 305.267 114.723 305.447 114.67C305.708 114.589 305.935 114.452 306.103 114.275C306.27 114.098 306.37 113.887 306.391 113.667C306.391 112.486 306.391 110.763 306.391 108.55C306.391 107.443 306.391 106.203 306.391 104.836C306.391 104.502 306.391 104.153 306.391 103.804C306.453 103.465 306.359 103.12 306.127 102.831C305.997 102.692 305.828 102.579 305.632 102.5C305.437 102.422 305.222 102.38 305.002 102.378H303.528H289.874L210.838 102.147C210.636 102.145 210.435 102.18 210.254 102.251C210.073 102.323 209.917 102.427 209.798 102.556C209.57 102.846 209.483 103.192 209.553 103.529C209.553 104.272 209.553 105.014 209.553 105.757C209.553 107.242 209.553 108.728 209.553 110.213C209.553 110.956 209.553 111.699 209.553 112.441C209.513 112.787 209.513 113.135 209.553 113.481C209.602 113.629 209.695 113.767 209.822 113.883C209.95 113.999 210.11 114.09 210.29 114.15C210.476 114.208 210.675 114.236 210.876 114.231H215.685L236.673 114.32L272.203 114.491L296.158 114.64L302.668 114.699H304.36C304.747 114.699 304.936 114.699 304.936 114.699H304.36H302.668H296.158H272.203L236.673 114.61L215.685 114.543H210.876C210.611 114.552 210.347 114.516 210.101 114.439C209.852 114.356 209.631 114.229 209.454 114.068C209.277 113.907 209.149 113.717 209.08 113.511C209.026 113.316 209.006 113.116 209.024 112.917V112.367C209.024 111.624 209.024 110.882 209.024 110.139C209.024 108.654 209.024 107.168 209.024 105.683C209.024 104.94 209.024 104.197 209.024 103.455C209.006 103.257 209.006 103.058 209.024 102.86C209.059 102.642 209.166 102.434 209.335 102.259C209.498 102.079 209.714 101.934 209.964 101.834C210.214 101.735 210.491 101.684 210.772 101.687L289.808 102.029L303.462 102.103H304.936C305.196 102.103 305.452 102.152 305.682 102.247C305.912 102.341 306.11 102.478 306.259 102.645C306.526 102.968 306.633 103.356 306.562 103.737C306.562 104.086 306.562 104.435 306.562 104.769C306.562 106.121 306.562 107.361 306.562 108.483C306.562 110.711 306.495 112.419 306.477 113.607C306.453 113.836 306.348 114.054 306.172 114.237C305.996 114.42 305.758 114.56 305.484 114.64C305.306 114.727 305.099 114.773 304.889 114.774V114.774Z" fill="#E0E0E0"/>
<path d="M261.09 105.876H216.64V109.151H261.09V105.876Z" fill="#646FD4"/>
<path opacity="0.2" d="M261.09 105.876H216.64V109.151H261.09V105.876Z" fill="white"/>
<path d="M233.478 125.23L209.174 125.143L209.153 128.649L233.457 128.736L233.478 125.23Z" fill="#646FD4"/>
<path opacity="0.1" d="M233.478 125.23L209.174 125.143L209.153 128.649L233.457 128.736L233.478 125.23Z" fill="black"/>
<path d="M304.275 146.755C304.466 146.736 304.655 146.709 304.842 146.673C305.106 146.607 305.349 146.497 305.554 146.351C305.759 146.205 305.922 146.026 306.032 145.826C306.181 145.527 306.239 145.204 306.202 144.883C306.202 144.527 306.202 144.14 306.202 143.71C306.202 142.848 306.202 141.868 306.202 140.739V136.023C306.248 135.681 306.151 135.337 305.928 135.042C305.695 134.74 305.329 134.515 304.898 134.411C304.428 134.345 303.948 134.325 303.472 134.351H289.874L211.112 134.121C210.688 134.122 210.279 134.244 209.961 134.464C209.643 134.684 209.438 134.987 209.383 135.317C209.383 136.023 209.383 136.802 209.383 137.545C209.383 139.031 209.383 140.516 209.383 142.001C209.383 142.744 209.383 143.487 209.383 144.23C209.347 144.577 209.366 144.926 209.439 145.269C209.557 145.571 209.8 145.832 210.129 146.012C210.478 146.186 210.888 146.269 211.301 146.25H212.614H215.345L236.257 146.331L271.664 146.502L295.534 146.651L302.026 146.71H303.717H304.284H303.717H302.026H295.534H271.664L236.238 146.681L215.326 146.621H211.216C210.705 146.645 210.198 146.538 209.77 146.317C209.34 146.083 209.026 145.739 208.882 145.344C208.797 144.966 208.772 144.582 208.806 144.2C208.806 143.457 208.806 142.714 208.806 141.972C208.806 140.486 208.806 139.001 208.806 137.515C208.806 136.773 208.806 136.03 208.806 135.287C208.875 134.863 209.139 134.472 209.547 134.189C209.956 133.906 210.482 133.75 211.027 133.75L289.789 134.092L303.387 134.173C303.893 134.149 304.401 134.176 304.898 134.255C305.389 134.381 305.803 134.646 306.061 134.998C306.305 135.325 306.411 135.704 306.363 136.082C306.363 136.431 306.363 136.773 306.363 137.114C306.363 138.459 306.363 139.692 306.363 140.828C306.363 141.964 306.363 142.922 306.363 143.799C306.363 144.222 306.363 144.616 306.363 144.98C306.397 145.312 306.329 145.646 306.165 145.953C306.042 146.158 305.865 146.339 305.644 146.485C305.424 146.632 305.167 146.739 304.889 146.799C304.682 146.813 304.475 146.798 304.275 146.755V146.755Z" fill="#E0E0E0"/>
<path d="M233.295 158.599L208.991 158.513L208.97 162.018L233.274 162.105L233.295 158.599Z" fill="#646FD4"/>
<path opacity="0.1" d="M233.295 158.599L208.991 158.513L208.97 162.018L233.274 162.105L233.295 158.599Z" fill="black"/>
<path d="M304.086 180.11C304.277 180.093 304.466 180.065 304.653 180.029C304.915 179.963 305.157 179.854 305.363 179.71C305.568 179.565 305.732 179.388 305.843 179.189C305.991 178.889 306.05 178.567 306.013 178.246C306.013 177.882 306.013 177.503 306.013 177.065C306.013 176.211 306.013 175.223 306.013 174.094V169.378C306.059 169.037 305.962 168.693 305.739 168.398C305.501 168.1 305.136 167.879 304.709 167.774C304.239 167.705 303.76 167.683 303.283 167.707H289.685L210.923 167.477C210.499 167.477 210.09 167.599 209.772 167.819C209.454 168.039 209.249 168.342 209.194 168.672C209.194 169.415 209.194 170.158 209.194 170.901C209.194 172.386 209.194 173.871 209.194 175.357C209.194 176.1 209.194 176.842 209.194 177.585C209.158 177.93 209.177 178.276 209.25 178.617C209.363 178.92 209.607 179.183 209.94 179.36C210.287 179.538 210.699 179.622 211.112 179.598H215.222L236.134 179.687L271.542 179.858L295.411 180.006L301.903 180.066H303.594C303.972 180.066 304.161 180.066 304.161 180.066C304.161 180.066 303.972 180.066 303.594 180.066H301.903H295.411H271.542L236.134 179.984L215.222 179.917H211.112C210.6 179.944 210.092 179.837 209.666 179.613C209.236 179.379 208.922 179.035 208.778 178.64C208.693 178.262 208.668 177.878 208.702 177.496C208.702 176.753 208.702 176.011 208.702 175.268C208.702 173.782 208.702 172.297 208.702 170.811C208.702 170.069 208.702 169.326 208.702 168.546C208.769 168.122 209.031 167.732 209.438 167.449C209.845 167.166 210.37 167.009 210.913 167.009L289.675 167.35L303.273 167.432C303.779 167.408 304.288 167.435 304.785 167.514C305.276 167.64 305.69 167.905 305.947 168.257C306.192 168.584 306.298 168.963 306.25 169.341C306.25 169.69 306.25 170.039 306.25 170.373C306.25 171.718 306.25 172.951 306.25 174.087C306.25 175.223 306.25 176.181 306.25 177.058C306.25 177.481 306.25 177.875 306.25 178.239C306.286 178.571 306.218 178.905 306.051 179.212C305.929 179.417 305.751 179.598 305.531 179.744C305.311 179.891 305.053 179.998 304.776 180.058C304.554 180.118 304.318 180.136 304.086 180.11V180.11Z" fill="#E0E0E0"/>
<path d="M260.142 138.783L215.691 138.625L215.672 141.9L260.123 142.059L260.142 138.783Z" fill="#646FD4"/>
<path opacity="0.2" d="M260.142 138.783L215.691 138.625L215.672 141.9L260.123 142.059L260.142 138.783Z" fill="white"/>
<path d="M219.711 174.05C219.683 174.348 219.544 174.634 219.312 174.871C219.079 175.109 218.763 175.287 218.402 175.385C218.042 175.482 217.653 175.494 217.284 175.419C216.915 175.345 216.582 175.186 216.326 174.964C216.07 174.742 215.903 174.466 215.845 174.17C215.788 173.874 215.842 173.571 216.001 173.299C216.16 173.027 216.417 172.797 216.741 172.639C217.064 172.48 217.44 172.4 217.821 172.408C218.347 172.431 218.841 172.617 219.195 172.924C219.549 173.231 219.734 173.636 219.711 174.05V174.05Z" fill="#646FD4"/>
<path d="M225.73 174.072C225.749 174.281 225.712 174.491 225.623 174.689C225.534 174.887 225.394 175.069 225.212 175.222C225.03 175.376 224.809 175.498 224.565 175.582C224.32 175.665 224.055 175.708 223.788 175.708C223.521 175.708 223.257 175.665 223.012 175.582C222.767 175.498 222.547 175.376 222.365 175.222C222.183 175.069 222.043 174.887 221.954 174.689C221.864 174.491 221.828 174.281 221.847 174.072C221.828 173.863 221.864 173.652 221.954 173.455C222.043 173.257 222.183 173.075 222.365 172.922C222.547 172.768 222.767 172.646 223.012 172.562C223.257 172.479 223.521 172.435 223.788 172.435C224.055 172.435 224.32 172.479 224.565 172.562C224.809 172.646 225.03 172.768 225.212 172.922C225.394 173.075 225.534 173.257 225.623 173.455C225.712 173.652 225.749 173.863 225.73 174.072V174.072Z" fill="#646FD4"/>
<path d="M231.759 174.094C231.731 174.393 231.592 174.679 231.36 174.916C231.127 175.153 230.811 175.332 230.451 175.429C230.09 175.527 229.701 175.539 229.332 175.464C228.963 175.389 228.63 175.231 228.374 175.009C228.119 174.787 227.951 174.511 227.894 174.214C227.836 173.918 227.89 173.615 228.049 173.343C228.208 173.071 228.465 172.842 228.789 172.683C229.113 172.525 229.488 172.445 229.869 172.453C230.395 172.478 230.887 172.664 231.24 172.97C231.594 173.277 231.78 173.681 231.759 174.094Z" fill="#646FD4"/>
<path d="M237.778 174.117C237.75 174.415 237.612 174.701 237.379 174.938C237.146 175.176 236.83 175.354 236.47 175.451C236.109 175.549 235.721 175.561 235.352 175.486C234.982 175.412 234.649 175.253 234.394 175.031C234.138 174.809 233.971 174.533 233.913 174.237C233.855 173.941 233.909 173.638 234.068 173.366C234.227 173.093 234.485 172.864 234.808 172.706C235.132 172.547 235.507 172.467 235.888 172.475C236.414 172.5 236.906 172.686 237.26 172.993C237.613 173.3 237.799 173.703 237.778 174.117Z" fill="#646FD4"/>
<path d="M243.798 174.131C243.772 174.431 243.634 174.717 243.403 174.955C243.171 175.194 242.855 175.373 242.495 175.472C242.135 175.57 241.745 175.584 241.376 175.51C241.006 175.436 240.672 175.278 240.415 175.056C240.159 174.834 239.991 174.558 239.932 174.261C239.874 173.965 239.927 173.662 240.086 173.389C240.245 173.117 240.503 172.887 240.827 172.728C241.15 172.57 241.526 172.489 241.908 172.497C242.432 172.522 242.922 172.707 243.275 173.012C243.629 173.318 243.816 173.719 243.798 174.131Z" fill="#646FD4"/>
<path d="M249.827 174.154C249.801 174.451 249.665 174.737 249.435 174.974C249.206 175.212 248.893 175.392 248.536 175.492C248.178 175.591 247.791 175.607 247.422 175.536C247.053 175.465 246.719 175.311 246.46 175.093C246.202 174.874 246.03 174.601 245.966 174.307C245.902 174.013 245.949 173.711 246.1 173.438C246.252 173.164 246.503 172.932 246.82 172.768C247.138 172.605 247.51 172.519 247.889 172.52C248.422 172.535 248.924 172.716 249.287 173.022C249.651 173.328 249.844 173.735 249.827 174.154V174.154Z" fill="#646FD4"/>
<path d="M255.846 174.176C255.864 174.385 255.828 174.595 255.739 174.793C255.65 174.991 255.51 175.173 255.328 175.326C255.145 175.48 254.925 175.602 254.68 175.686C254.435 175.769 254.171 175.812 253.904 175.812C253.637 175.812 253.373 175.769 253.128 175.686C252.883 175.602 252.663 175.48 252.48 175.326C252.298 175.173 252.158 174.991 252.069 174.793C251.98 174.595 251.944 174.385 251.962 174.176C251.944 173.967 251.98 173.756 252.069 173.559C252.158 173.361 252.298 173.179 252.48 173.026C252.663 172.872 252.883 172.75 253.128 172.666C253.373 172.583 253.637 172.539 253.904 172.539C254.171 172.539 254.435 172.583 254.68 172.666C254.925 172.75 255.145 172.872 255.328 173.026C255.51 173.179 255.65 173.361 255.739 173.559C255.828 173.756 255.864 173.967 255.846 174.176Z" fill="#646FD4"/>
<path d="M261.865 174.198C261.839 174.496 261.704 174.781 261.474 175.019C261.245 175.256 260.932 175.436 260.574 175.536C260.217 175.636 259.83 175.651 259.461 175.58C259.092 175.51 258.758 175.355 258.499 175.137C258.24 174.919 258.068 174.646 258.004 174.352C257.94 174.058 257.987 173.755 258.139 173.482C258.291 173.209 258.541 172.976 258.859 172.813C259.177 172.65 259.549 172.563 259.928 172.564C260.46 172.58 260.963 172.76 261.326 173.067C261.689 173.373 261.883 173.78 261.865 174.198V174.198Z" fill="#646FD4"/>
<path d="M267.885 174.22C267.859 174.52 267.721 174.806 267.49 175.045C267.258 175.283 266.942 175.462 266.582 175.561C266.222 175.66 265.832 175.673 265.463 175.599C265.093 175.525 264.759 175.367 264.502 175.145C264.246 174.923 264.078 174.647 264.019 174.351C263.96 174.054 264.014 173.751 264.173 173.478C264.332 173.206 264.59 172.976 264.913 172.817C265.237 172.659 265.613 172.578 265.995 172.586C266.519 172.611 267.009 172.796 267.362 173.101C267.715 173.407 267.903 173.808 267.885 174.22V174.22Z" fill="#646FD4"/>
<g opacity="0.2">
<path d="M219.711 174.05C219.683 174.348 219.544 174.634 219.312 174.871C219.079 175.109 218.763 175.287 218.402 175.385C218.042 175.482 217.653 175.494 217.284 175.419C216.915 175.345 216.582 175.186 216.326 174.964C216.07 174.742 215.903 174.466 215.845 174.17C215.788 173.874 215.842 173.571 216.001 173.299C216.16 173.027 216.417 172.797 216.741 172.639C217.064 172.48 217.44 172.4 217.821 172.408C218.347 172.431 218.841 172.617 219.195 172.924C219.549 173.231 219.734 173.636 219.711 174.05V174.05Z" fill="white"/>
<path d="M225.73 174.072C225.749 174.281 225.712 174.492 225.623 174.689C225.534 174.887 225.394 175.069 225.212 175.222C225.03 175.376 224.809 175.498 224.564 175.582C224.32 175.665 224.055 175.709 223.788 175.709C223.521 175.709 223.257 175.665 223.012 175.582C222.767 175.498 222.547 175.376 222.365 175.222C222.183 175.069 222.043 174.887 221.953 174.689C221.864 174.492 221.828 174.281 221.846 174.072C221.828 173.863 221.864 173.653 221.953 173.455C222.043 173.257 222.183 173.076 222.365 172.922C222.547 172.769 222.767 172.646 223.012 172.562C223.257 172.479 223.521 172.436 223.788 172.436C224.055 172.436 224.32 172.479 224.564 172.562C224.809 172.646 225.03 172.769 225.212 172.922C225.394 173.076 225.534 173.257 225.623 173.455C225.712 173.653 225.749 173.863 225.73 174.072V174.072Z" fill="white"/>
<path d="M231.759 174.094C231.731 174.393 231.592 174.679 231.36 174.916C231.127 175.153 230.811 175.332 230.451 175.429C230.09 175.527 229.701 175.539 229.332 175.464C228.963 175.389 228.63 175.231 228.374 175.009C228.119 174.787 227.951 174.511 227.894 174.214C227.836 173.918 227.89 173.615 228.049 173.343C228.208 173.071 228.465 172.842 228.789 172.683C229.112 172.525 229.488 172.445 229.869 172.453C230.395 172.478 230.887 172.664 231.24 172.97C231.593 173.277 231.78 173.681 231.759 174.094Z" fill="white"/>
<path d="M237.778 174.117C237.75 174.415 237.612 174.701 237.379 174.938C237.146 175.176 236.83 175.354 236.47 175.451C236.109 175.549 235.721 175.561 235.352 175.486C234.982 175.412 234.649 175.253 234.394 175.031C234.138 174.809 233.971 174.533 233.913 174.237C233.855 173.941 233.909 173.638 234.068 173.366C234.227 173.093 234.485 172.864 234.808 172.706C235.132 172.547 235.507 172.467 235.888 172.475C236.414 172.5 236.906 172.686 237.26 172.993C237.613 173.3 237.799 173.703 237.778 174.117Z" fill="white"/>
<path d="M243.798 174.131C243.772 174.431 243.634 174.717 243.403 174.955C243.171 175.194 242.855 175.373 242.495 175.472C242.135 175.57 241.745 175.584 241.376 175.51C241.006 175.436 240.672 175.278 240.415 175.056C240.159 174.834 239.991 174.558 239.932 174.261C239.874 173.965 239.927 173.662 240.086 173.389C240.245 173.117 240.503 172.887 240.827 172.728C241.15 172.57 241.526 172.489 241.908 172.497C242.432 172.522 242.922 172.707 243.275 173.012C243.629 173.318 243.816 173.719 243.798 174.131Z" fill="white"/>
<path d="M249.827 174.154C249.801 174.451 249.665 174.737 249.435 174.974C249.206 175.212 248.893 175.392 248.536 175.492C248.178 175.591 247.791 175.607 247.422 175.536C247.053 175.465 246.719 175.311 246.46 175.093C246.202 174.874 246.03 174.601 245.966 174.307C245.902 174.013 245.949 173.711 246.1 173.438C246.252 173.164 246.503 172.932 246.82 172.768C247.138 172.605 247.51 172.519 247.889 172.52C248.422 172.535 248.924 172.716 249.287 173.022C249.651 173.328 249.844 173.735 249.827 174.154V174.154Z" fill="white"/>
<path d="M255.846 174.176C255.864 174.385 255.828 174.595 255.739 174.793C255.65 174.991 255.51 175.173 255.328 175.326C255.145 175.48 254.925 175.602 254.68 175.686C254.435 175.769 254.171 175.812 253.904 175.812C253.637 175.812 253.373 175.769 253.128 175.686C252.883 175.602 252.663 175.48 252.48 175.326C252.298 175.173 252.158 174.991 252.069 174.793C251.98 174.595 251.944 174.385 251.962 174.176C251.944 173.967 251.98 173.756 252.069 173.559C252.158 173.361 252.298 173.179 252.48 173.026C252.663 172.872 252.883 172.75 253.128 172.666C253.373 172.583 253.637 172.539 253.904 172.539C254.171 172.539 254.435 172.583 254.68 172.666C254.925 172.75 255.145 172.872 255.328 173.026C255.51 173.179 255.65 173.361 255.739 173.559C255.828 173.756 255.864 173.967 255.846 174.176Z" fill="white"/>
<path d="M261.865 174.198C261.839 174.496 261.704 174.781 261.474 175.019C261.245 175.256 260.932 175.436 260.574 175.536C260.217 175.636 259.83 175.651 259.461 175.58C259.092 175.51 258.758 175.355 258.499 175.137C258.24 174.919 258.068 174.646 258.004 174.352C257.94 174.058 257.987 173.755 258.139 173.482C258.291 173.209 258.541 172.976 258.859 172.813C259.177 172.65 259.549 172.563 259.928 172.564C260.46 172.58 260.963 172.76 261.326 173.067C261.689 173.373 261.883 173.78 261.865 174.198V174.198Z" fill="white"/>
<path d="M267.885 174.22C267.858 174.52 267.721 174.806 267.489 175.045C267.258 175.283 266.942 175.462 266.582 175.561C266.222 175.66 265.832 175.673 265.463 175.599C265.093 175.525 264.759 175.367 264.502 175.145C264.245 174.923 264.077 174.647 264.019 174.351C263.96 174.054 264.014 173.751 264.173 173.478C264.332 173.206 264.589 172.976 264.913 172.817C265.237 172.659 265.613 172.578 265.995 172.586C266.518 172.611 267.009 172.796 267.362 173.101C267.715 173.407 267.903 173.808 267.885 174.22V174.22Z" fill="white"/>
</g>
<path d="M259.333 67.002C259.989 66.7748 260.546 66.4008 260.934 65.9268C261.322 65.4527 261.525 64.8993 261.516 64.3356C261.54 63.9692 261.469 63.6026 261.308 63.2584C261.146 62.9141 260.897 62.5993 260.576 62.3331C260.254 62.0669 259.867 61.8549 259.439 61.71C259.01 61.5652 258.548 61.4905 258.081 61.4905C257.614 61.4905 257.152 61.5652 256.723 61.71C256.294 61.8549 255.907 62.0669 255.586 62.3331C255.264 62.5993 255.015 62.9141 254.854 63.2584C254.692 63.6026 254.621 63.9692 254.646 64.3356C254.631 64.905 254.832 65.4649 255.222 65.9448C255.612 66.4246 256.175 66.8028 256.838 67.0317C251.546 67.6556 251.783 72.1713 251.783 72.1713L264.294 72.2158C264.294 72.2158 264.587 67.6184 259.333 67.002Z" fill="#646FD4"/>
<path opacity="0.1" d="M259.333 67.002C259.989 66.7748 260.546 66.4008 260.934 65.9268C261.322 65.4527 261.525 64.8993 261.516 64.3356C261.54 63.9692 261.469 63.6026 261.308 63.2584C261.146 62.9141 260.897 62.5993 260.576 62.3331C260.254 62.0669 259.867 61.8549 259.439 61.71C259.01 61.5652 258.548 61.4905 258.081 61.4905C257.614 61.4905 257.152 61.5652 256.723 61.71C256.294 61.8549 255.907 62.0669 255.586 62.3331C255.264 62.5993 255.015 62.9141 254.854 63.2584C254.692 63.6026 254.621 63.9692 254.646 64.3356C254.631 64.905 254.832 65.4649 255.222 65.9448C255.612 66.4246 256.175 66.8028 256.838 67.0317C251.546 67.6556 251.783 72.1713 251.783 72.1713L264.294 72.2158C264.294 72.2158 264.587 67.6184 259.333 67.002Z" fill="black"/>
<path d="M279.663 75.1284L235.071 74.9694L235.047 79.1582L279.639 79.3173L279.663 75.1284Z" fill="#646FD4"/>
<path opacity="0.2" d="M279.663 75.1284L235.071 74.9694L235.047 79.1582L279.639 79.3173L279.663 75.1284Z" fill="white"/>
<path d="M171.377 307.018C171.377 307.122 165.953 307.211 159.272 307.211C152.591 307.211 147.167 307.122 147.167 307.018C147.167 306.914 152.591 306.825 159.272 306.825C165.953 306.825 171.377 306.914 171.377 307.018Z" fill="#263238"/>
<path d="M151.533 306.988C151.476 306.988 151.259 306.855 150.947 306.572C150.566 306.21 150.142 305.876 149.681 305.577C149.227 305.292 148.686 305.105 148.112 305.035C147.668 304.99 147.384 305.035 147.356 304.99C147.328 304.946 147.602 304.79 148.121 304.76C148.807 304.749 149.476 304.928 150.011 305.265C150.513 305.586 150.935 305.976 151.259 306.416C151.476 306.743 151.589 306.959 151.533 306.988Z" fill="#263238"/>
<path d="M207.049 307.033C207.049 307.137 201.634 307.226 194.944 307.226C188.254 307.226 182.848 307.137 182.848 307.033C182.848 306.929 188.263 306.84 194.944 306.84C201.625 306.84 207.049 306.929 207.049 307.033Z" fill="#263238"/>
<path d="M250.772 115.969C250.394 115.665 249.458 115.813 249.458 115.813C249.552 115.386 249.552 114.949 249.458 114.521C249.288 114.105 248.097 114.187 248.097 114.187C248.043 113.836 248.043 113.482 248.097 113.132C248.107 113.054 248.086 112.976 248.037 112.909C247.988 112.841 247.913 112.787 247.823 112.753C247.26 112.573 246.655 112.487 246.047 112.501C245.319 112.092 248.268 108.847 249.364 107.807C250.46 106.767 250.261 105.957 249.288 105.957C248.617 105.957 245.178 109.077 244.119 110.124C243.061 111.171 240.254 114.083 240.16 111.758C240.065 109.433 238.875 107.68 238.128 107.383C237.382 107.086 236.588 107.784 236.994 108.431C237.351 109.165 237.574 109.935 237.656 110.718C237.758 111.342 237.723 111.975 237.552 112.59C237.238 113.733 236.812 114.856 236.276 115.947L236.994 120.388C236.994 120.388 220.826 135.19 219.333 136.296C218.001 137.291 185.957 131.418 180.581 130.972C178.753 130.762 176.909 130.663 175.062 130.675C172.728 130.757 172.312 131.017 169.988 131.039C164.117 131.09 158.26 131.495 152.468 132.25C149.846 132.6 147.396 133.51 145.386 134.88C143.377 136.25 141.884 138.027 141.072 140.018C135.657 153.313 124.847 185.294 122.683 202.971C121.048 205.302 118.117 207.187 116.806 209.641C115.284 212.894 115.653 213.005 116.163 213.079C117.543 213.28 119.111 207.442 119.697 208.853C120.283 210.264 116.721 215.813 118.166 215.976C120.056 216.184 121.559 210.034 121.738 209.544C121.918 209.054 122.853 209.21 122.683 209.67C122.409 210.324 119.754 217.253 121.606 217.476C122.627 217.595 122.74 216.132 122.74 216.132C122.74 216.132 124.63 209.499 125.49 209.633C126.35 209.767 125.433 213.681 124.998 214.988C124.564 216.295 125.169 216.956 126.057 216.637C126.662 216.414 128.107 212.441 128.504 211.148C128.901 209.856 129.893 206.276 131.226 208.348C132.558 210.42 134.58 211.624 135.412 211.653C135.599 211.636 135.776 211.576 135.919 211.479C136.062 211.383 136.165 211.255 136.215 211.112C136.265 210.969 136.259 210.817 136.198 210.677C136.138 210.536 136.025 210.413 135.875 210.324C135.16 209.775 134.546 209.15 134.051 208.467C133.61 207.935 133.291 207.347 133.106 206.729C132.725 205.497 132.504 204.238 132.445 202.971L129.68 199.901C131.226 177.383 140.505 169.816 149.303 154.375L152.912 160.213L154.481 164.535L144.861 183.2L185.891 182.777L179.768 164.253L187.205 144.943C195.246 145.084 215.893 145.321 219.333 144.096C223.661 142.61 246.047 120.388 246.047 120.388C247.506 119.497 248.903 118.545 250.233 117.536C250.233 117.536 251.594 116.638 250.772 115.969Z" fill="#FFB573"/>
<path d="M144.03 163.102C145.22 159.908 152.572 152.099 152.572 152.099C152.572 152.099 153.366 163.295 152.572 164.847C151.842 166.176 150.979 167.458 149.992 168.68C143.056 176.976 143.964 181.128 143.964 181.128L185.872 180.125C185.967 175.52 182.499 164.81 181.781 163.102C181.063 161.394 183.453 155.801 183.453 155.801C183.453 155.801 188.178 152.021 188.008 150.075C187.918 148.327 187.438 147.095 186.98 145.383H203.064V134.321L175.251 129.145C173.975 131.975 162.437 130.586 162.437 130.586C149.983 130.913 149.208 132.71 144.03 135.874C138.851 139.038 133.198 160 133.198 160L144.03 163.102Z" fill="#646FD4"/>
<path d="M184.804 150.899C184.785 151.465 184.687 152.028 184.511 152.578C184.266 153.61 183.888 155.021 183.406 156.566C182.924 158.111 182.461 159.537 182.045 160.502C181.878 161.055 181.631 161.591 181.308 162.099C181.361 161.535 181.494 160.977 181.705 160.436C182.064 159.277 182.47 157.94 182.924 156.477C183.378 155.014 183.812 153.677 184.171 152.518C184.299 151.961 184.512 151.417 184.804 150.899V150.899Z" fill="#263238"/>
<path d="M175.005 129.977C175.109 128.321 175.327 126.449 175.327 126.449C175.327 126.449 180.543 125.996 180.855 121.762C181.166 117.529 180.855 107.762 180.855 107.762L171.405 103.959L160.916 110.443L162.532 131.611L172.152 132.094C172.887 132.11 173.6 131.896 174.135 131.499C174.67 131.102 174.983 130.555 175.005 129.977V129.977Z" fill="#FFB573"/>
<path d="M175.941 118.413C175.941 118.413 175.941 118.494 175.856 118.591C175.785 118.661 175.695 118.717 175.591 118.753C175.487 118.789 175.374 118.805 175.26 118.799C174.656 118.799 174.07 118.249 173.862 117.611C173.763 117.301 173.763 116.977 173.862 116.667C173.881 116.532 173.943 116.403 174.042 116.291C174.141 116.18 174.274 116.09 174.429 116.029C174.556 115.987 174.699 115.987 174.826 116.029C174.92 116.065 174.996 116.125 175.043 116.199C175.109 116.326 175.043 116.407 175.043 116.4C175.043 116.393 175.043 116.326 174.949 116.251C174.899 116.198 174.827 116.161 174.745 116.148C174.663 116.134 174.577 116.144 174.505 116.177C174.389 116.232 174.292 116.309 174.225 116.402C174.157 116.494 174.12 116.598 174.117 116.704C174.038 116.981 174.038 117.268 174.117 117.544C174.306 118.123 174.816 118.591 175.27 118.636C175.359 118.645 175.449 118.64 175.535 118.621C175.621 118.602 175.701 118.569 175.771 118.524C175.884 118.465 175.922 118.405 175.941 118.413Z" fill="#EB996E"/>
<path d="M184.467 106.667C187.985 103.506 180.446 100.346 178.332 102.028C174.675 101.211 170.725 100.855 167.153 101.887C163.581 102.92 159.291 104.732 159.291 107.829C157.183 107.695 155.974 109.144 155.142 110.941C154.611 112.036 154.292 113.188 154.197 114.358C153.933 118.413 152.487 124.013 149.142 126.984C147.252 128.64 144.634 129.784 143.557 131.848C142.612 133.638 143.104 135.763 142.225 137.575C141.441 139.172 139.711 140.308 138.445 141.697C137.155 143.272 136.396 145.08 136.239 146.95C136.082 148.819 136.532 150.689 137.547 152.385C138.57 154.036 140.01 155.507 141.779 156.707C143.548 157.908 145.61 158.812 147.838 159.366C152.252 160.422 156.959 160.458 161.398 159.47C164.73 158.844 167.838 157.633 170.488 155.927C173.201 154.186 175.064 151.762 175.761 149.065C176.432 146.034 175.355 142.952 174.552 139.937C172.038 130.408 172.756 129.91 175.931 121.064C176.007 120.908 176.045 120.745 176.101 120.589C176.158 120.433 176.186 120.359 176.224 120.24C176.314 119.89 174.911 119.617 174.915 119.26C175.399 119.342 174.451 119.396 174.915 119.26C174.431 119.179 173.987 118.99 173.635 118.717C173.282 118.426 173.036 118.065 172.923 117.673C172.81 117.281 172.834 116.872 172.993 116.489C173.215 116.071 173.548 115.694 173.968 115.383C174.388 115.072 174.886 114.834 175.431 114.684C176.479 114.343 177.604 114.164 178.634 113.786C180.817 112.969 179.416 110.812 180.446 109.037C181.293 107.807 183.587 107.457 184.467 106.667Z" fill="#263238"/>
<path d="M170.677 199.287C169.991 199.321 169.303 199.289 168.627 199.191C167.361 199.072 165.631 198.864 163.732 198.567C161.833 198.27 160.132 197.928 158.903 197.653C158.247 197.54 157.611 197.36 157.013 197.118C157.013 197.007 160.094 197.586 163.874 198.188C167.654 198.789 170.696 199.176 170.677 199.287Z" fill="#455A64"/>
<path d="M190.323 236.334C188.731 236.745 187.092 237.031 185.428 237.188C183.387 237.463 181.648 237.656 180.864 237.685V237.537C181.119 237.596 181.251 237.633 181.251 237.663C181.251 237.693 181.091 237.663 180.826 237.663H180.259L180.826 237.53C181.563 237.359 183.302 237.076 185.343 236.787C186.98 236.508 188.648 236.356 190.323 236.334Z" fill="#455A64"/>
<path d="M189.936 238.465C188.462 238.518 186.985 238.466 185.523 238.309C184.047 238.286 182.576 238.159 181.129 237.931C184.082 237.741 187.055 237.922 189.936 238.465V238.465Z" fill="#455A64"/>
<path opacity="0.2" d="M143.784 182.309C144.28 182.81 144.906 183.223 145.619 183.521C146.332 183.819 147.117 183.996 147.923 184.039C149.611 184.196 151.318 184.171 152.997 183.965C163.817 183.022 175.279 182.153 185.872 180.125C172.161 180.727 157.675 180.526 143.964 181.128L143.822 182.049" fill="black"/>
<g opacity="0.2">
<path d="M157.911 197.497L165.641 221.071L165.102 198.492L157.911 197.497Z" fill="black"/>
</g>
<path d="M164.451 125.427C168.514 124.814 166.884 120.58 163.836 119.252C160.789 117.925 148.232 118.909 149.945 122.465C151.658 126.021 159.017 126.271 164.451 125.427Z" fill="white"/>
<path d="M148.277 128L145.764 130.37C149.194 125.988 154.831 119.446 152.516 115.933C149.54 111.476 164.023 105.877 159.499 105.877C166.985 105.877 150.22 110.823 153.357 115.584C155.795 119.297 151.84 123.447 148.277 128Z" fill="#263238"/>
<path d="M175.732 121.108L174.966 120.031C174.934 119.987 174.917 119.937 174.917 119.886C174.917 119.835 174.934 119.785 174.966 119.741L175.732 118.672C175.764 118.625 175.812 118.587 175.87 118.56C175.929 118.533 175.995 118.519 176.062 118.519C176.13 118.519 176.196 118.533 176.254 118.56C176.312 118.587 176.36 118.625 176.393 118.672L177.159 119.741C177.191 119.785 177.208 119.835 177.208 119.886C177.208 119.937 177.191 119.987 177.159 120.031L176.393 121.108C176.36 121.154 176.312 121.193 176.254 121.22C176.196 121.247 176.13 121.261 176.062 121.261C175.995 121.261 175.929 121.247 175.87 121.22C175.812 121.193 175.764 121.154 175.732 121.108Z" fill="white"/>
<path d="M148.231 195.793C148.231 195.793 142.427 232.8 140.595 251.604C138.654 268.864 140.595 300.809 140.595 300.809L148.251 301.037C148.251 301.037 160.402 232.825 158.163 220.049C151.853 184.042 158.163 195.793 158.163 195.793H148.231Z" fill="#FFB573"/>
<path d="M175.373 201.324C175.373 201.324 169.569 238.331 167.738 257.135C165.796 274.395 167.737 306.34 167.737 306.34L175.393 306.568C175.393 306.568 187.544 237.171 185.305 224.395C178.995 188.388 185.305 201.324 185.305 201.324H175.373Z" fill="#FFB573"/>
<path d="M145.262 180.244C145.262 180.244 125.071 195.65 139.732 258.765C159.462 258.677 176.425 257.641 197.033 249.284C197.033 249.284 189.493 203.457 185.472 180.244C175.994 178.238 145.262 180.244 145.262 180.244Z" fill="#263238"/>
<path d="M149.157 300.247C149.785 301.037 150.373 300.474 149.292 300.286C151.881 300.851 149.333 300.261 147.649 300.247C145.136 302.222 144.633 299.852 139.607 300.718C139.607 302.301 136.308 307.856 142.488 307.195C150.162 307.195 149.858 307.336 152.306 307.336C154.753 307.336 161.346 305.778 152.801 302.511C153.305 304.952 153.466 303.789 153.326 303.694C157.712 304.05 150.973 301.85 150.79 301.827C148.484 301.62 151.332 300.883 149.157 300.247Z" fill="#263238"/>
<path d="M176.905 301.059C175.922 302.617 177.995 300.891 176.914 300.703C176.905 300.664 176.955 300.678 175.271 300.664C172.758 302.639 172.256 300.269 167.229 301.135C167.229 302.719 163.93 308.273 170.11 307.612C177.785 307.612 177.481 307.753 179.928 307.753C182.375 307.753 195.566 306.058 175.9 301.849C175.843 301.711 181.089 304.206 180.948 304.111C185.334 304.467 178.595 302.438 178.413 302.415C176.107 302.207 177.407 301.059 176.905 301.059Z" fill="#263238"/>
<path d="M163.011 124.463C166.118 123.994 164.871 120.757 162.541 119.741C160.21 118.726 150.608 119.479 151.918 122.198C153.228 124.917 158.855 125.109 163.011 124.463Z" fill="#646FD4"/>
<path opacity="0.2" d="M159.838 218.074L158.833 205.037L164.864 199.901L159.838 218.074Z" fill="black"/>
</svg>
