<svg width="360" height="349" viewBox="0 0 360 349" fill="none" xmlns="http://www.w3.org/2000/svg">
<g clip-path="url(#clip0_156_327)">
<path d="M415 298.892H-55V299.12H415V298.892Z" fill="#EBEBEB"/>
<path d="M25.4452 307.591H-5.68762V307.82H25.4452V307.591Z" fill="#EBEBEB"/>
<path d="M156.5 307.71H105.872V307.939H156.5V307.71Z" fill="#EBEBEB"/>
<path d="M62.4624 312.307H44.4238V312.535H62.4624V312.307Z" fill="#EBEBEB"/>
<path d="M364.24 312.197H346.164V312.425H364.24V312.197Z" fill="#EBEBEB"/>
<path d="M337.788 312.197H309.316V312.425H337.788V312.197Z" fill="#EBEBEB"/>
<path d="M293.637 310.689H253.63V310.918H293.637V310.689Z" fill="#EBEBEB"/>
<path d="M167.78 258.135H-13.7245C-15.1464 258.133 -16.5092 257.582 -17.5138 256.604C-18.5183 255.626 -19.0825 254.3 -19.0825 252.918V4.88045C-19.0701 3.5061 -18.5005 2.19198 -17.4973 1.22356C-16.494 0.255133 -15.1383 -0.289394 -13.7245 -0.291748H167.78C169.204 -0.291748 170.569 0.257993 171.575 1.23654C172.582 2.21508 173.147 3.54227 173.147 4.92614V252.918C173.147 254.301 172.582 255.629 171.575 256.607C170.569 257.586 169.204 258.135 167.78 258.135V258.135ZM-13.7245 -0.108984C-15.0841 -0.106563 -16.3871 0.420174 -17.3476 1.35561C-18.3081 2.29105 -18.8475 3.55875 -18.8475 4.88045V252.918C-18.8475 254.239 -18.3081 255.507 -17.3476 256.442C-16.3871 257.378 -15.0841 257.905 -13.7245 257.907H167.78C169.141 257.905 170.445 257.378 171.406 256.443C172.368 255.508 172.91 254.24 172.912 252.918V4.88045C172.91 3.55791 172.368 2.29023 171.406 1.35506C170.445 0.419877 169.141 -0.106569 167.78 -0.108984H-13.7245Z" fill="#EBEBEB"/>
<path d="M371.111 258.135H189.597C188.175 258.133 186.811 257.583 185.805 256.605C184.799 255.627 184.232 254.301 184.23 252.918V4.88045C184.245 3.50526 184.817 2.19116 185.821 1.22299C186.826 0.254813 188.183 -0.289419 189.597 -0.291748H371.111C372.524 -0.286992 373.877 0.258597 374.878 1.22677C375.879 2.19493 376.448 3.50767 376.46 4.88045V252.918C376.46 254.298 375.897 255.623 374.895 256.601C373.892 257.579 372.532 258.131 371.111 258.135V258.135ZM189.597 -0.108984C188.237 -0.106569 186.933 0.419877 185.971 1.35506C185.009 2.29023 184.467 3.55791 184.465 4.88045V252.918C184.467 254.24 185.009 255.508 185.971 256.443C186.933 257.378 188.237 257.905 189.597 257.907H371.111C372.472 257.905 373.776 257.378 374.738 256.443C375.7 255.508 376.241 254.24 376.244 252.918V4.88045C376.241 3.55791 375.7 2.29023 374.738 1.35506C373.776 0.419877 372.472 -0.106569 371.111 -0.108984H189.597Z" fill="#EBEBEB"/>
<path d="M339.687 32.6239H230.553V159.297H339.687V32.6239Z" fill="#E6E6E6"/>
<path d="M342.413 32.6239H233.279V159.297H342.413V32.6239Z" fill="#F5F5F5"/>
<path d="M337.525 153.951V37.9607L238.177 37.9607V153.951H337.525Z" fill="white"/>
<path d="M337.516 153.951V37.9607H335.457V153.951H337.516Z" fill="#E6E6E6"/>
<path d="M340.383 126.473H235.3V133.646H340.383V126.473Z" fill="#F5F5F5"/>
<path d="M347.743 23.7872H225.223C225.024 23.7872 224.833 23.8643 224.692 24.0014C224.551 24.1385 224.471 24.3244 224.471 24.5183V24.5183C224.471 24.7122 224.551 24.8981 224.692 25.0352C224.833 25.1723 225.024 25.2493 225.223 25.2493H347.743C347.942 25.2493 348.134 25.1723 348.275 25.0352C348.416 24.8981 348.495 24.7122 348.495 24.5183V24.5183C348.495 24.3244 348.416 24.1385 348.275 24.0014C348.134 23.8643 347.942 23.7872 347.743 23.7872V23.7872Z" fill="#E6E6E6"/>
<path d="M348.495 28.1737C350.572 28.1737 352.255 26.5372 352.255 24.5184C352.255 22.4997 350.572 20.8632 348.495 20.8632C346.418 20.8632 344.735 22.4997 344.735 24.5184C344.735 26.5372 346.418 28.1737 348.495 28.1737Z" fill="#E6E6E6"/>
<path d="M231.568 28.6122C231.299 28.6122 231.041 28.5082 230.851 28.3231C230.66 28.1381 230.553 27.887 230.553 27.6253V25.5052C230.556 25.2442 230.663 24.9946 230.853 24.81C231.043 24.6254 231.3 24.5207 231.568 24.5183C231.838 24.5183 232.096 24.6223 232.286 24.8074C232.477 24.9925 232.584 25.2435 232.584 25.5052V27.6253C232.584 27.887 232.477 28.1381 232.286 28.3231C232.096 28.5082 231.838 28.6122 231.568 28.6122V28.6122Z" fill="#E6E6E6"/>
<path d="M336.388 28.6122C336.119 28.6122 335.86 28.5082 335.67 28.3231C335.48 28.1381 335.373 27.887 335.373 27.6253V25.5052C335.375 25.2442 335.483 24.9946 335.673 24.81C335.863 24.6254 336.119 24.5207 336.388 24.5183V24.5183C336.657 24.5183 336.915 24.6223 337.106 24.8074C337.296 24.9925 337.403 25.2435 337.403 25.5052V27.6253C337.403 27.887 337.296 28.1381 337.106 28.3231C336.915 28.5082 336.657 28.6122 336.388 28.6122V28.6122Z" fill="#E6E6E6"/>
<path opacity="0.5" d="M347.499 24.5183H235.3V77.7207H347.499V24.5183Z" fill="#E0E0E0"/>
<path d="M243.676 28.1737C245.752 28.1737 247.436 26.5372 247.436 24.5184C247.436 22.4997 245.752 20.8632 243.676 20.8632C241.599 20.8632 239.916 22.4997 239.916 24.5184C239.916 26.5372 241.599 28.1737 243.676 28.1737Z" fill="#E6E6E6"/>
<path d="M29.3274 172.904H-10.4816L-6.95663 127.606H25.8024L29.3274 172.904Z" fill="#EBEBEB"/>
<path d="M20.5948 172.904H13.7516L12.2946 127.606H18.6114L20.5948 172.904Z" fill="#F5F5F5"/>
<path d="M11.4204 172.904H7.43481V298.892H11.4204V172.904Z" fill="#F0F0F0"/>
<path d="M10.9316 191.463H7.92357C6.45957 191.463 5.27277 192.617 5.27277 194.04V203.553C5.27277 204.976 6.45957 206.13 7.92357 206.13H10.9316C12.3956 206.13 13.5824 204.976 13.5824 203.553V194.04C13.5824 192.617 12.3956 191.463 10.9316 191.463Z" fill="#F0F0F0"/>
<path d="M10.9316 214.967H7.92357C6.45957 214.967 5.27277 216.121 5.27277 217.544V227.057C5.27277 228.48 6.45957 229.634 7.92357 229.634H10.9316C12.3956 229.634 13.5824 228.48 13.5824 227.057V217.544C13.5824 216.121 12.3956 214.967 10.9316 214.967Z" fill="#F0F0F0"/>
<path d="M15.7256 298.892H3.12018C3.12018 298.199 3.40342 297.534 3.90759 297.044C4.41176 296.554 5.09557 296.278 5.80858 296.278H13.0372C13.7502 296.278 14.434 296.554 14.9382 297.044C15.4423 297.534 15.7256 298.199 15.7256 298.892V298.892Z" fill="#F0F0F0"/>
<path d="M11.4204 172.904H7.43481V175.271H11.4204V172.904Z" fill="#E0E0E0"/>
<path d="M35.5314 28.0732H33.6326V135.319H35.5314V28.0732Z" fill="#E0E0E0"/>
<path d="M328.069 175.563H286.192V298.882H328.069V175.563Z" fill="#E6E6E6"/>
<path d="M307.624 298.892H328.069V281.867H286.192L307.624 298.892Z" fill="#FAFAFA"/>
<path d="M161.059 175.563H119.182V298.882H161.059V175.563Z" fill="#E6E6E6"/>
<path d="M328.059 175.563H143.218V293.025H328.059V175.563Z" fill="#FAFAFA"/>
<path d="M163.663 298.892H143.227V281.867H185.104L163.663 298.892Z" fill="#FAFAFA"/>
<path d="M312.211 219.335H159.085V248.732H312.211V219.335Z" fill="#F0F0F0"/>
<path d="M312.211 255.019H159.085V284.417H312.211V255.019Z" fill="#F0F0F0"/>
<path d="M275.739 222.478H195.548C193.997 222.478 192.51 221.88 191.413 220.814C190.317 219.748 189.701 218.302 189.701 216.795H281.586C281.587 217.541 281.437 218.281 281.143 218.971C280.85 219.661 280.419 220.288 279.876 220.816C279.333 221.344 278.688 221.763 277.978 222.048C277.268 222.333 276.507 222.48 275.739 222.478Z" fill="#FAFAFA"/>
<path d="M312.211 183.66H159.085V213.057H312.211V183.66Z" fill="#F0F0F0"/>
<path d="M275.739 186.803H195.548C193.996 186.801 192.509 186.2 191.413 185.132C190.316 184.065 189.701 182.618 189.701 181.11H281.586C281.587 181.857 281.437 182.597 281.143 183.288C280.85 183.979 280.42 184.606 279.877 185.135C279.334 185.664 278.689 186.083 277.979 186.37C277.269 186.656 276.508 186.803 275.739 186.803V186.803Z" fill="#FAFAFA"/>
<path d="M275.739 258.163H195.548C193.996 258.16 192.509 257.56 191.413 256.492C190.316 255.425 189.701 253.978 189.701 252.47H281.586C281.587 253.217 281.437 253.957 281.143 254.648C280.85 255.338 280.42 255.966 279.877 256.495C279.334 257.024 278.689 257.443 277.979 257.729C277.269 258.016 276.508 258.163 275.739 258.163V258.163Z" fill="#FAFAFA"/>
<path d="M16.0169 148.195H156.303C152.139 148.145 148.147 146.573 145.12 143.793C142.093 141.013 140.253 137.228 139.965 133.19L137.484 92.5431H-2.79248L-0.320283 133.19C-0.0326099 137.228 1.8075 141.013 4.83435 143.793C7.86119 146.573 11.8532 148.145 16.0169 148.195V148.195Z" fill="#646FD4"/>
<path opacity="0.6" d="M16.0169 148.195H156.303C152.139 148.145 148.147 146.573 145.12 143.793C142.093 141.013 140.253 137.228 139.965 133.19L137.484 92.5431H-2.79248L-0.320283 133.19C-0.0326099 137.228 1.8075 141.013 4.83435 143.793C7.86119 146.573 11.8532 148.145 16.0169 148.195V148.195Z" fill="white"/>
<path d="M166.699 65.5032H41.82C39.8292 65.4804 37.8552 65.8597 36.0229 66.617C34.1907 67.3743 32.5402 68.4932 31.1759 69.9028C29.8116 71.3124 28.7632 72.9821 28.0972 74.8061C27.4311 76.63 27.1618 78.5686 27.3064 80.4989L30.54 133.199C30.6874 135.13 30.4202 137.069 29.7551 138.895C29.0901 140.72 28.0419 142.391 26.677 143.801C25.3121 145.211 23.6604 146.33 21.8269 147.086C19.9933 147.843 18.018 148.22 16.0264 148.194H156.303C158.294 148.22 160.27 147.843 162.103 147.086C163.937 146.33 165.588 145.211 166.953 143.801C168.318 142.391 169.366 140.72 170.031 138.895C170.696 137.069 170.964 135.13 170.816 133.199L171.164 138.901L167.611 80.5355C167.458 78.6016 167.721 76.6579 168.384 74.8283C169.046 72.9987 170.094 71.3234 171.459 69.9091C172.824 68.4949 174.478 67.3727 176.314 66.6141C178.151 65.8555 180.129 65.4772 182.124 65.5032H166.699Z" fill="#646FD4"/>
<path d="M182.124 65.5031H41.8199C45.9835 65.5486 49.9766 67.1171 53.0042 69.896C56.0317 72.675 57.8715 76.4605 58.1571 80.4988L70.2361 278.514H210.512L198.462 80.5353C198.181 76.492 196.344 72.7 193.316 69.9142C190.288 67.1285 186.293 65.5536 182.124 65.5031V65.5031Z" fill="#646FD4"/>
<path opacity="0.8" d="M209.981 278.014H70.7066L58.6562 80.4683L58.6559 80.4635C58.3611 76.2956 56.4624 72.3916 53.3423 69.5277C51.6365 67.9619 49.634 66.7698 47.4688 66.0031H182.121C186.167 66.0528 190.043 67.5818 192.977 70.2822C195.912 72.9824 197.69 76.6553 197.963 80.5683C197.963 80.5689 197.963 80.5694 197.963 80.57L209.981 278.014Z" fill="white" stroke="black"/>
<path d="M105.42 121.867H79.42L77.8502 96.573H103.86L105.42 121.867ZM82.24 118.888H102.14L101.04 99.5429H81.1026L82.24 118.888Z" fill="white"/>
<path d="M109.049 181.366H83.0202L81.4786 156.062H107.507L109.049 181.366ZM85.8966 178.387H105.796L104.621 159.041H84.7216L85.8966 178.387Z" fill="white"/>
<path d="M112.668 240.864H86.6392L85.06 215.561H111.089L112.668 240.864ZM89.525 237.885H109.425L108.24 218.54H88.3406L89.525 237.885Z" fill="white"/>
<path d="M177.97 96.5637H118.129V99.5428H177.97V96.5637Z" fill="white"/>
<path d="M171.615 107.731H118.806V110.71H171.615V107.731Z" fill="white"/>
<path d="M179.323 118.888H119.483V121.867H179.323V118.888Z" fill="white"/>
<path d="M181.589 156.062H121.748V159.041H181.589V156.062Z" fill="white"/>
<path d="M157.553 167.229H122.425V170.208H157.553V167.229Z" fill="white"/>
<path d="M141.244 178.387H123.111V181.366H141.244V178.387Z" fill="white"/>
<path d="M182.952 178.387H153.031V181.366H182.952V178.387Z" fill="white"/>
<path d="M185.208 215.561H125.367V218.54H185.208V215.561Z" fill="white"/>
<path d="M185.894 226.728H126.053V229.707H185.894V226.728Z" fill="white"/>
<path d="M159.828 237.885H126.73V240.864H159.828V237.885Z" fill="white"/>
<path d="M94.1122 115.909C93.4618 115.91 92.8359 115.668 92.3638 115.233L86 109.366C85.7568 109.143 85.5613 108.874 85.4248 108.577C85.2882 108.28 85.2132 107.959 85.204 107.634C85.1855 106.977 85.4363 106.339 85.9013 105.862C86.3662 105.384 87.0072 105.106 87.6833 105.088C88.3593 105.07 89.015 105.314 89.5062 105.766L94.037 109.924L104.236 99.3875C104.7 98.9088 105.34 98.6289 106.016 98.6091C106.692 98.5894 107.348 98.8316 107.841 99.2824C108.333 99.7332 108.621 100.356 108.642 101.013C108.662 101.67 108.413 102.308 107.949 102.787L96.0016 115.133C95.7725 115.372 95.4964 115.564 95.1896 115.697C94.8828 115.831 94.5516 115.903 94.2156 115.909H94.1122Z" fill="#646FD4"/>
<path d="M97.7405 175.408C97.0898 175.41 96.4632 175.168 95.9921 174.732L89.6001 168.865C89.3483 168.644 89.1445 168.376 89.0006 168.077C88.8567 167.779 88.7756 167.455 88.7621 167.126C88.7487 166.796 88.803 166.467 88.922 166.158C89.0411 165.849 89.2224 165.567 89.4553 165.327C89.6882 165.087 89.968 164.895 90.2784 164.762C90.5888 164.628 90.9234 164.557 91.2626 164.551C91.6018 164.545 91.9388 164.605 92.2538 164.728C92.5688 164.85 92.8555 165.033 93.0969 165.264L97.6371 169.422L107.827 158.886C108.29 158.407 108.931 158.127 109.607 158.108C110.283 158.088 110.939 158.33 111.432 158.781C111.924 159.232 112.212 159.854 112.232 160.511C112.253 161.169 112.003 161.807 111.54 162.285L99.5923 174.631C99.3647 174.87 99.0902 175.061 98.785 175.195C98.4799 175.328 98.1503 175.401 97.8157 175.408H97.7405Z" fill="#646FD4"/>
<path d="M101.359 234.915C100.708 234.915 100.081 234.669 99.6111 234.23L93.2191 228.363C92.9673 228.142 92.7635 227.875 92.6196 227.576C92.4757 227.277 92.3946 226.954 92.3811 226.624C92.3676 226.294 92.422 225.966 92.541 225.657C92.66 225.348 92.8413 225.065 93.0742 224.825C93.3072 224.586 93.587 224.393 93.8974 224.26C94.2077 224.127 94.5423 224.055 94.8816 224.05C95.2208 224.044 95.5578 224.104 95.8728 224.226C96.1878 224.349 96.4744 224.531 96.7159 224.763L101.256 228.921L111.455 218.385C111.933 217.986 112.545 217.773 113.175 217.787C113.804 217.802 114.406 218.042 114.864 218.462C115.321 218.882 115.603 219.452 115.654 220.062C115.705 220.672 115.522 221.279 115.14 221.766L103.192 234.111C102.962 234.349 102.686 234.54 102.38 234.674C102.073 234.807 101.742 234.88 101.407 234.888L101.359 234.915Z" fill="#646FD4"/>
<path d="M236.172 94.8583L217.915 99.2209L272.397 314.691L290.654 310.328L236.172 94.8583Z" fill="#646FD4"/>
<path opacity="0.2" d="M236.162 94.8565L230.603 96.1849L285.085 311.655L290.644 310.326L236.162 94.8565Z" fill="black"/>
<path d="M289.274 313.533L275.126 316.914C273.991 317.185 273.298 318.299 273.577 319.402L275.946 328.773C276.225 329.875 277.37 330.55 278.505 330.278L292.654 326.897C293.788 326.626 294.481 325.513 294.203 324.41L291.833 315.039C291.554 313.936 290.409 313.262 289.274 313.533Z" fill="#646FD4"/>
<path opacity="0.7" d="M289.274 313.533L275.126 316.914C273.991 317.185 273.298 318.299 273.577 319.402L275.946 328.773C276.225 329.875 277.37 330.55 278.505 330.278L292.654 326.897C293.788 326.626 294.481 325.513 294.203 324.41L291.833 315.039C291.554 313.936 290.409 313.262 289.274 313.533Z" fill="white"/>
<path d="M289.384 307.228L272.031 311.374C270.982 311.625 270.341 312.654 270.599 313.674L272.152 319.814C272.41 320.834 273.469 321.457 274.517 321.207L291.87 317.06C292.919 316.809 293.56 315.78 293.302 314.76L291.749 308.62C291.492 307.6 290.433 306.977 289.384 307.228Z" fill="#E0E0E0"/>
<path d="M236.174 94.8368L217.92 99.2049L220.063 84.3553L221.435 74.8334L227.197 82.6465L236.174 94.8368Z" fill="#E0E0E0"/>
<path d="M227.197 82.6465L220.063 84.3553L221.435 74.8334L227.197 82.6465Z" fill="#646FD4"/>
<path d="M283.325 80.7457C283.231 86.2286 282.14 96.5639 285.111 99.9359C278.283 102.119 272.162 106 267.354 111.194C263.284 104.724 268.595 101.243 268.595 101.243C274.451 99.415 274.094 95.1292 272.863 91.1907L283.325 80.7457Z" fill="#FFB573"/>
<path d="M265.625 105.611C267.176 100.009 262.805 99.2139 270.09 96.4724C275.786 94.2793 286.549 93.9686 289.078 95.7322C290.478 96.7192 288.551 100.173 288.551 100.173L265.625 105.611Z" fill="#263238"/>
<path d="M297.199 104.404C297.622 105.062 297.923 105.565 298.261 106.141C298.6 106.716 298.882 107.246 299.201 107.804C299.803 108.919 300.367 110.033 300.912 111.167C302.003 113.424 302.952 115.736 303.826 118.075C305.582 122.813 306.842 127.712 307.586 132.696L307.831 134.579C307.878 134.844 307.915 135.319 307.943 135.73C307.972 136.141 307.943 136.516 307.943 136.881C307.922 138.229 307.818 139.575 307.633 140.911C307.304 143.433 306.806 145.818 306.261 148.222C305.151 152.909 303.748 157.526 302.059 162.048C301.835 162.661 301.388 163.173 300.804 163.49C300.219 163.806 299.535 163.905 298.881 163.767C298.227 163.629 297.647 163.265 297.249 162.742C296.851 162.218 296.663 161.572 296.72 160.924C297.096 156.282 297.538 151.603 297.885 147.034C298.055 144.749 298.186 142.465 298.224 140.308C298.224 139.239 298.224 138.179 298.12 137.293L298.036 136.68L297.914 136.086L297.566 134.496C296.562 130.214 295.21 126.015 293.524 121.94C292.678 119.893 291.766 117.865 290.807 115.864C290.331 114.858 289.833 113.871 289.313 112.903L288.523 111.459L287.78 110.134L287.649 109.896C286.964 108.669 286.798 107.231 287.187 105.887C287.575 104.543 288.487 103.399 289.729 102.698C290.971 101.998 292.445 101.795 293.838 102.134C295.232 102.473 296.434 103.327 297.19 104.514L297.199 104.404Z" fill="#FFB573"/>
<path d="M294.68 163.894L295.46 162.633L297.66 159.032L301.692 161.253C302.529 164.908 299.972 168.143 299.972 168.143L298.835 169.057C298.447 169.385 297.946 169.557 297.433 169.538C296.919 169.519 296.433 169.311 296.071 168.956L295.197 168.17C294.647 167.608 294.299 166.887 294.206 166.116C294.113 165.345 294.279 164.565 294.68 163.894V163.894Z" fill="#FFB573"/>
<path d="M241.1 162.03L240.451 159.745C240.299 159.208 239.936 158.75 239.441 158.47C238.945 158.189 238.356 158.109 237.801 158.246L234.981 158.95L233.242 159.37C232.327 159.602 231.515 160.118 230.928 160.838C230.341 161.558 230.012 162.445 229.989 163.364V164.725C229.985 165.318 230.213 165.891 230.627 166.327C231.04 166.763 231.609 167.03 232.217 167.074L233.956 167.238C236.565 166.834 238.957 165.585 240.743 163.693C240.936 163.464 241.07 163.194 241.132 162.904C241.194 162.614 241.183 162.314 241.1 162.03Z" fill="#FFB573"/>
<path d="M292.499 100.384C297.434 102.513 301.956 107.584 305.659 116.969C304.475 120.835 292.245 127.168 292.245 127.168C292.245 127.168 276.989 95.7231 292.499 100.384Z" fill="#646FD4"/>
<path d="M251.675 112.4C251.722 115.882 245.791 123.951 252.615 128.63C253.207 135.675 254.006 142.611 255.557 154.171H292.057C288.589 141.377 291.587 132.787 297.152 110.308C297.47 109.1 297.515 107.839 297.286 106.612C297.056 105.386 296.556 104.222 295.82 103.2C295.085 102.179 294.131 101.324 293.024 100.695C291.917 100.065 290.683 99.675 289.407 99.552C287.95 99.4149 286.408 99.2961 284.838 99.2139C279.318 98.8294 273.777 98.8294 268.257 99.2139C266.461 99.3692 264.609 99.5885 262.833 99.8261C259.728 100.266 256.89 101.78 254.841 104.089C252.791 106.399 251.667 109.35 251.675 112.4V112.4Z" fill="#646FD4"/>
<path d="M263.763 109.01C263.848 111.624 263.763 114.127 263.763 116.686C263.763 119.245 263.594 121.776 263.425 124.335C263.134 129.522 262.506 134.686 261.545 139.797C261.432 140.445 261.254 141.122 261.094 141.78C260.934 142.437 260.793 143.095 260.577 143.79L260.276 144.804L260.116 145.316C260.056 145.546 259.98 145.772 259.891 145.992C259.497 146.976 258.959 147.9 258.293 148.734C257.376 149.89 256.373 150.981 255.294 151.996C254.307 152.955 253.301 153.824 252.286 154.737C248.288 158.085 244.04 161.14 239.577 163.876C239.017 164.218 238.349 164.353 237.694 164.257C237.04 164.161 236.443 163.84 236.011 163.352C235.58 162.864 235.343 162.241 235.344 161.598C235.344 160.955 235.582 160.333 236.015 159.846V159.846C239.37 156.126 242.83 152.435 246.054 148.779C246.843 147.866 247.614 146.952 248.347 146.038C249.036 145.226 249.664 144.368 250.227 143.47C250.453 143.132 250.594 142.721 250.472 142.949C250.35 143.178 250.472 142.83 250.472 142.73L250.556 142.328L250.735 141.533C250.867 141.021 250.942 140.445 251.036 139.888C251.13 139.33 251.243 138.773 251.299 138.188C251.938 133.573 252.239 128.712 252.418 123.85C252.596 118.989 252.709 114.036 252.737 109.229C252.729 108.525 252.864 107.826 253.134 107.172C253.404 106.518 253.803 105.923 254.31 105.419C255.333 104.402 256.73 103.822 258.194 103.806C259.657 103.79 261.067 104.34 262.113 105.335C263.16 106.33 263.757 107.688 263.773 109.111L263.763 109.01Z" fill="#FFB573"/>
<path d="M259.74 100.639C255.238 102.814 250.773 107.036 248.921 116.704C250.096 120.533 266.189 127.908 266.189 127.908C266.189 127.908 275.147 95.0469 259.74 100.639Z" fill="#646FD4"/>
<path d="M260.727 77.2549C260.849 77.9402 260.567 78.5799 260.097 78.6622C259.627 78.7444 259.157 78.2692 259.035 77.5747C258.913 76.8802 259.204 76.2497 259.665 76.1674C260.126 76.0852 260.614 76.5604 260.727 77.2549Z" fill="#263238"/>
<path d="M259.9 76.1583L258.105 76.0121C258.105 76.0121 259.186 77.1361 259.9 76.1583Z" fill="#263238"/>
<path d="M260.558 78.0226C260.189 79.7263 259.585 81.3739 258.763 82.9206C259.175 83.1076 259.624 83.2045 260.079 83.2045C260.533 83.2045 260.983 83.1076 261.395 82.9206L260.558 78.0226Z" fill="#ED893E"/>
<path d="M258.866 72.5396C258.758 72.5388 258.655 72.4998 258.575 72.4299C258.535 72.3917 258.503 72.3461 258.482 72.2959C258.46 72.2457 258.449 72.1919 258.449 72.1375C258.449 72.0831 258.46 72.0292 258.482 71.9791C258.503 71.9289 258.535 71.8833 258.575 71.8451C259.034 71.3534 259.606 70.9746 260.245 70.7395C260.884 70.5044 261.571 70.4198 262.25 70.4926C262.304 70.5025 262.355 70.5226 262.401 70.5519C262.447 70.5812 262.486 70.6191 262.517 70.6633C262.547 70.7075 262.569 70.7572 262.579 70.8095C262.59 70.8618 262.59 70.9156 262.579 70.9678C262.556 71.0773 262.49 71.1738 262.396 71.2369C262.301 71.3 262.185 71.3248 262.071 71.3059C261.534 71.2584 260.992 71.3336 260.489 71.5256C259.987 71.7176 259.537 72.021 259.176 72.4116C259.094 72.4925 258.983 72.5384 258.866 72.5396V72.5396Z" fill="#263238"/>
<path d="M283.992 70.447C284.932 79.0368 285.496 82.6555 281.896 87.8095C276.472 95.6226 265.568 95.12 262.062 87.051C258.904 79.7405 257.917 66.947 265.775 61.9576C267.465 60.8368 269.429 60.1677 271.469 60.0171C273.51 59.8665 275.555 60.2398 277.4 61.0996C279.245 61.9594 280.825 63.2755 281.982 64.9161C283.139 66.5566 283.832 68.4639 283.992 70.447V70.447Z" fill="#FFB573"/>
<path d="M267.918 76.7249C262.278 75.7563 260.915 69.4601 263.002 66.7187C253.499 67.1299 247.097 56.7946 257.362 50.9005C267.627 45.0064 276.688 54.1354 275.955 57.5805C288.598 56.4656 296.005 66.5816 289.115 74.1023C298.205 75.537 311.816 85.4976 301.824 95.9608C315.332 97.8889 316.798 139.011 280.025 131.7C241.26 123.988 274.94 91.1907 274.94 91.1907C274.94 91.1907 265.117 88.504 267.918 76.7249Z" fill="#263238"/>
<path d="M303.93 98.6382L303.131 98.163C306.543 92.7715 307.107 87.8643 304.804 83.5419C301.843 78.059 294.661 74.8241 289.087 74.5134L289.143 73.5996C294.971 73.9194 302.52 77.2549 305.641 83.1124C308.066 87.6815 307.474 93.0365 303.93 98.6382Z" fill="#263238"/>
<path d="M293.242 75.0251C296.485 74.5043 294.953 69.3595 292.565 67.9979C290.177 66.6363 278.738 68.8477 279.997 72.3933C281.257 75.939 288.89 75.7288 293.242 75.0251Z" fill="white"/>
<path d="M293.825 73.7276C297.058 73.1244 295.761 68.9574 293.336 67.6507C290.911 66.3439 280.918 67.3126 282.281 70.8125C283.644 74.3124 289.501 74.5591 293.825 73.7276Z" fill="#646FD4"/>
<path d="M259.947 67.7602C257.781 67.7319 255.687 67.0019 253.997 65.6859C251.299 63.6481 249.814 60.5959 250.237 57.9093C250.491 56.2005 251.59 53.8519 255.426 52.3624L255.773 53.2123C253.066 54.2632 251.478 55.9537 251.167 58.0372C250.829 60.4131 252.173 63.1272 254.608 64.964C255.737 65.8794 257.097 66.4857 258.548 66.7202C259.999 66.9547 261.488 66.809 262.861 66.2981L263.218 67.148C262.18 67.5608 261.068 67.7689 259.947 67.7602V67.7602Z" fill="#263238"/>
<path d="M270.146 77.7299C269.723 79.9779 269.591 80.9374 268.388 81.9883C268.046 82.3601 267.597 82.6229 267.099 82.7422C266.6 82.8616 266.077 82.8319 265.596 82.6571C265.116 82.4823 264.701 82.1705 264.406 81.7626C264.11 81.3546 263.949 80.8696 263.942 80.3709C263.754 78.3057 264.478 74.9794 266.63 74.2849C268.783 73.5904 270.569 75.4911 270.146 77.7299Z" fill="#FFB573"/>
<path d="M264.957 84.8851L264.196 83.5601C264.164 83.5059 264.147 83.4444 264.147 83.3819C264.147 83.3193 264.164 83.2579 264.196 83.2037L264.957 81.8878C264.99 81.8306 265.037 81.783 265.095 81.7499C265.153 81.7167 265.219 81.6992 265.286 81.6992C265.353 81.6992 265.419 81.7167 265.477 81.7499C265.535 81.783 265.583 81.8306 265.615 81.8878L266.377 83.2037C266.409 83.2579 266.426 83.3193 266.426 83.3819C266.426 83.4444 266.409 83.5059 266.377 83.5601L265.615 84.8851C265.583 84.9422 265.535 84.9899 265.477 85.023C265.419 85.0562 265.353 85.0737 265.286 85.0737C265.219 85.0737 265.153 85.0562 265.095 85.023C265.037 84.9899 264.99 84.9422 264.957 84.8851Z" fill="white"/>
<path d="M255.576 154.143C255.576 154.143 254.288 199.962 252.568 230.1C250.744 257.761 248.404 322.45 248.404 322.45L255.595 322.816C255.595 322.816 271.5 268.38 270.832 235.491C289.501 189.49 282.789 155.523 282.789 155.523L255.576 154.143Z" fill="#FFB573"/>
<path d="M248.94 319.544C248.78 319.432 248.587 319.371 248.39 319.371C248.192 319.371 248 319.432 247.84 319.544C244.389 322.034 240.209 323.386 235.911 323.4C231.136 323.601 232.311 326.142 239.145 326.992C247.182 327.96 248.902 329.569 251.496 330.199C254.091 330.83 256.149 328.911 256.102 323.611C256.098 323.43 256.039 323.254 255.932 323.106C255.825 322.958 255.675 322.844 255.501 322.779C253.191 321.955 250.988 320.869 248.94 319.544V319.544Z" fill="#263238"/>
<path d="M265.117 154.143C265.117 154.143 278.277 208.369 285.9 233.645C293.919 260.146 300.273 320.622 300.226 322.624H306.449C306.449 322.624 314.486 273.607 304.569 233.618C303.629 168.737 292.123 154.189 292.123 154.189L265.117 154.143Z" fill="#FFB573"/>
<path d="M300.066 320.458C299.904 320.393 299.725 320.381 299.555 320.424C299.386 320.467 299.235 320.562 299.126 320.696C297.519 322.724 296.353 324.972 291.606 326.946C287.677 328.573 289.848 330.802 295.996 329.989C303.225 329.02 303.328 330.163 305.763 330.163C308.197 330.163 309.344 327.805 307.567 322.679C307.511 322.509 307.407 322.358 307.268 322.241C307.129 322.125 306.959 322.049 306.778 322.021C304.484 321.765 302.23 321.241 300.066 320.458V320.458Z" fill="#263238"/>
<path d="M255.576 154.143C255.576 154.143 249.372 194.296 250.246 249.18C269.873 249.072 289.375 246.146 308.122 240.499C308.122 240.499 308.404 169.386 292.076 154.171C282.648 151.703 255.792 153.339 255.576 154.143Z" fill="#263238"/>
<path opacity="0.2" d="M256.3 241.385C256.239 241.385 256.181 241.363 256.137 241.322C256.093 241.281 256.067 241.225 256.065 241.166C254.307 206.121 258.575 156.647 258.612 156.181C258.613 156.151 258.621 156.121 258.635 156.093C258.648 156.066 258.668 156.041 258.691 156.022C258.715 156.002 258.743 155.987 258.773 155.978C258.803 155.97 258.835 155.967 258.866 155.971C258.897 155.973 258.927 155.981 258.955 155.995C258.982 156.009 259.007 156.028 259.027 156.051C259.047 156.074 259.062 156.1 259.072 156.129C259.081 156.157 259.085 156.188 259.082 156.218C259.035 156.72 254.777 206.158 256.535 241.203C256.537 241.233 256.534 241.263 256.523 241.292C256.513 241.321 256.497 241.347 256.476 241.37C256.455 241.392 256.429 241.41 256.4 241.422C256.371 241.434 256.341 241.44 256.309 241.44L256.3 241.385Z" fill="white"/>
<path opacity="0.2" d="M280.862 206.341L286.211 178.798L288.363 185.387L280.862 206.341Z" fill="black"/>
<path d="M319.56 328.823C319.56 328.95 254.286 329.06 173.794 329.06C93.3018 329.06 28 328.95 28 328.823C28 328.695 93.2642 328.585 173.794 328.585C254.324 328.585 319.56 328.704 319.56 328.823Z" fill="#263238"/>
</g>
<defs>
<clipPath id="clip0_156_327">
<rect width="470" height="349" fill="white" transform="translate(-55)"/>
</clipPath>
</defs>
</svg>
